<mxfile host="app.diagrams.net" agent="Mozilla/5.0 (Windows NT 10.0; Win64; x64; rv:134.0) Gecko/20100101 Firefox/134.0" version="28.0.7">
  <diagram name="Seite-1" id="0yMu2bgVcwQ-I8gFiRpK">
    <mxGraphModel dx="1425" dy="786" grid="1" gridSize="10" guides="1" tooltips="1" connect="1" arrows="1" fold="1" page="1" pageScale="1" pageWidth="827" pageHeight="1169" math="0" shadow="0">
      <root>
        <mxCell id="0" />
        <mxCell id="1" parent="0" />
        <mxCell id="iryeiS7iNPTf82SAIa8L-52" value="Docker Container " style="rounded=0;whiteSpace=wrap;html=1;verticalAlign=bottom;fillColor=#f5f5f5;fontColor=#333333;strokeColor=#666666;" vertex="1" parent="1">
          <mxGeometry x="700" y="390" width="60" height="80" as="geometry" />
        </mxCell>
        <mxCell id="iryeiS7iNPTf82SAIa8L-54" value="Docker Container " style="rounded=0;whiteSpace=wrap;html=1;verticalAlign=bottom;fillColor=#f5f5f5;fontColor=#333333;strokeColor=#666666;" vertex="1" parent="1">
          <mxGeometry x="560" y="390" width="60" height="80" as="geometry" />
        </mxCell>
        <mxCell id="iryeiS7iNPTf82SAIa8L-51" value="Docker Container " style="rounded=0;whiteSpace=wrap;html=1;verticalAlign=bottom;fillColor=#f5f5f5;fontColor=#333333;strokeColor=#666666;" vertex="1" parent="1">
          <mxGeometry x="630" y="390" width="60" height="80" as="geometry" />
        </mxCell>
        <mxCell id="iryeiS7iNPTf82SAIa8L-56" style="edgeStyle=orthogonalEdgeStyle;rounded=0;orthogonalLoop=1;jettySize=auto;html=1;" edge="1" parent="1" source="iryeiS7iNPTf82SAIa8L-50" target="iryeiS7iNPTf82SAIa8L-51">
          <mxGeometry relative="1" as="geometry" />
        </mxCell>
        <mxCell id="iryeiS7iNPTf82SAIa8L-50" value="Docker Container " style="rounded=0;whiteSpace=wrap;html=1;verticalAlign=top;fillColor=#f5f5f5;fontColor=#333333;strokeColor=#666666;" vertex="1" parent="1">
          <mxGeometry x="630" y="230" width="60" height="140" as="geometry" />
        </mxCell>
        <mxCell id="iryeiS7iNPTf82SAIa8L-43" value="Docker Container" style="rounded=0;whiteSpace=wrap;html=1;verticalAlign=top;fillColor=#f5f5f5;fontColor=#333333;strokeColor=#666666;" vertex="1" parent="1">
          <mxGeometry x="460" y="230" width="60" height="220" as="geometry" />
        </mxCell>
        <mxCell id="iryeiS7iNPTf82SAIa8L-42" value="Docker Container" style="rounded=0;whiteSpace=wrap;html=1;verticalAlign=top;fillColor=#f5f5f5;fontColor=#333333;strokeColor=#666666;" vertex="1" parent="1">
          <mxGeometry x="390" y="230" width="60" height="220" as="geometry" />
        </mxCell>
        <mxCell id="iryeiS7iNPTf82SAIa8L-41" value="Docker Container" style="rounded=0;whiteSpace=wrap;html=1;verticalAlign=top;fillColor=#f5f5f5;strokeColor=#666666;fontColor=#333333;" vertex="1" parent="1">
          <mxGeometry x="320" y="230" width="60" height="220" as="geometry" />
        </mxCell>
        <mxCell id="iryeiS7iNPTf82SAIa8L-22" style="rounded=0;orthogonalLoop=1;jettySize=auto;html=1;entryX=0.5;entryY=0;entryDx=0;entryDy=0;exitX=0.5;exitY=1;exitDx=0;exitDy=0;" edge="1" parent="1" source="iryeiS7iNPTf82SAIa8L-1" target="iryeiS7iNPTf82SAIa8L-4">
          <mxGeometry relative="1" as="geometry" />
        </mxCell>
        <mxCell id="iryeiS7iNPTf82SAIa8L-23" style="edgeStyle=orthogonalEdgeStyle;rounded=0;orthogonalLoop=1;jettySize=auto;html=1;" edge="1" parent="1" source="iryeiS7iNPTf82SAIa8L-1" target="iryeiS7iNPTf82SAIa8L-5">
          <mxGeometry relative="1" as="geometry" />
        </mxCell>
        <mxCell id="iryeiS7iNPTf82SAIa8L-24" style="rounded=0;orthogonalLoop=1;jettySize=auto;html=1;entryX=0.5;entryY=0;entryDx=0;entryDy=0;exitX=0.5;exitY=1;exitDx=0;exitDy=0;" edge="1" parent="1" source="iryeiS7iNPTf82SAIa8L-1" target="iryeiS7iNPTf82SAIa8L-6">
          <mxGeometry relative="1" as="geometry" />
        </mxCell>
        <mxCell id="iryeiS7iNPTf82SAIa8L-1" value="MCP Client" style="rounded=1;whiteSpace=wrap;html=1;fillColor=#dae8fc;strokeColor=#6c8ebf;" vertex="1" parent="1">
          <mxGeometry x="130" y="160" width="120" height="40" as="geometry" />
        </mxCell>
        <mxCell id="iryeiS7iNPTf82SAIa8L-2" value="MCP Client" style="rounded=1;whiteSpace=wrap;html=1;fillColor=#dae8fc;strokeColor=#6c8ebf;" vertex="1" parent="1">
          <mxGeometry x="360" y="160" width="120" height="40" as="geometry" />
        </mxCell>
        <mxCell id="iryeiS7iNPTf82SAIa8L-3" value="MCP Client" style="rounded=1;whiteSpace=wrap;html=1;fillColor=#dae8fc;strokeColor=#6c8ebf;" vertex="1" parent="1">
          <mxGeometry x="600" y="160" width="120" height="40" as="geometry" />
        </mxCell>
        <mxCell id="iryeiS7iNPTf82SAIa8L-31" style="edgeStyle=orthogonalEdgeStyle;rounded=0;orthogonalLoop=1;jettySize=auto;html=1;entryX=0.5;entryY=0;entryDx=0;entryDy=0;" edge="1" parent="1" source="iryeiS7iNPTf82SAIa8L-4" target="iryeiS7iNPTf82SAIa8L-13">
          <mxGeometry relative="1" as="geometry" />
        </mxCell>
        <mxCell id="iryeiS7iNPTf82SAIa8L-4" value="MCP Server" style="rounded=1;whiteSpace=wrap;html=1;fillColor=#ffe6cc;strokeColor=#d79b00;" vertex="1" parent="1">
          <mxGeometry x="100" y="269" width="40" height="91" as="geometry" />
        </mxCell>
        <mxCell id="iryeiS7iNPTf82SAIa8L-32" style="edgeStyle=orthogonalEdgeStyle;rounded=0;orthogonalLoop=1;jettySize=auto;html=1;entryX=0.5;entryY=0;entryDx=0;entryDy=0;" edge="1" parent="1" source="iryeiS7iNPTf82SAIa8L-5" target="iryeiS7iNPTf82SAIa8L-14">
          <mxGeometry relative="1" as="geometry" />
        </mxCell>
        <mxCell id="iryeiS7iNPTf82SAIa8L-5" value="MCP Server" style="rounded=1;whiteSpace=wrap;html=1;fillColor=#ffe6cc;strokeColor=#d79b00;" vertex="1" parent="1">
          <mxGeometry x="170" y="269" width="40" height="91" as="geometry" />
        </mxCell>
        <mxCell id="iryeiS7iNPTf82SAIa8L-33" style="edgeStyle=orthogonalEdgeStyle;rounded=0;orthogonalLoop=1;jettySize=auto;html=1;entryX=0.5;entryY=0;entryDx=0;entryDy=0;" edge="1" parent="1" source="iryeiS7iNPTf82SAIa8L-6" target="iryeiS7iNPTf82SAIa8L-15">
          <mxGeometry relative="1" as="geometry" />
        </mxCell>
        <mxCell id="iryeiS7iNPTf82SAIa8L-6" value="MCP Server" style="rounded=1;whiteSpace=wrap;html=1;fillColor=#ffe6cc;strokeColor=#d79b00;" vertex="1" parent="1">
          <mxGeometry x="240" y="269" width="40" height="91" as="geometry" />
        </mxCell>
        <mxCell id="iryeiS7iNPTf82SAIa8L-34" style="edgeStyle=orthogonalEdgeStyle;rounded=0;orthogonalLoop=1;jettySize=auto;html=1;entryX=0.5;entryY=0;entryDx=0;entryDy=0;" edge="1" parent="1" source="iryeiS7iNPTf82SAIa8L-7" target="iryeiS7iNPTf82SAIa8L-16">
          <mxGeometry relative="1" as="geometry" />
        </mxCell>
        <mxCell id="iryeiS7iNPTf82SAIa8L-7" value="MCP Server" style="rounded=1;whiteSpace=wrap;html=1;fillColor=#ffe6cc;strokeColor=#d79b00;" vertex="1" parent="1">
          <mxGeometry x="330" y="270" width="40" height="90" as="geometry" />
        </mxCell>
        <mxCell id="iryeiS7iNPTf82SAIa8L-35" style="edgeStyle=orthogonalEdgeStyle;rounded=0;orthogonalLoop=1;jettySize=auto;html=1;entryX=0.5;entryY=0;entryDx=0;entryDy=0;" edge="1" parent="1" source="iryeiS7iNPTf82SAIa8L-8" target="iryeiS7iNPTf82SAIa8L-17">
          <mxGeometry relative="1" as="geometry" />
        </mxCell>
        <mxCell id="iryeiS7iNPTf82SAIa8L-8" value="MCP Server" style="rounded=1;whiteSpace=wrap;html=1;fillColor=#ffe6cc;strokeColor=#d79b00;" vertex="1" parent="1">
          <mxGeometry x="400" y="270" width="40" height="90" as="geometry" />
        </mxCell>
        <mxCell id="iryeiS7iNPTf82SAIa8L-36" style="edgeStyle=orthogonalEdgeStyle;rounded=0;orthogonalLoop=1;jettySize=auto;html=1;entryX=0.5;entryY=0;entryDx=0;entryDy=0;" edge="1" parent="1" source="iryeiS7iNPTf82SAIa8L-9" target="iryeiS7iNPTf82SAIa8L-18">
          <mxGeometry relative="1" as="geometry" />
        </mxCell>
        <mxCell id="iryeiS7iNPTf82SAIa8L-9" value="MCP Server" style="rounded=1;whiteSpace=wrap;html=1;fillColor=#ffe6cc;strokeColor=#d79b00;" vertex="1" parent="1">
          <mxGeometry x="470" y="270" width="40" height="90" as="geometry" />
        </mxCell>
        <mxCell id="iryeiS7iNPTf82SAIa8L-37" style="rounded=0;orthogonalLoop=1;jettySize=auto;html=1;entryX=0.474;entryY=-0.012;entryDx=0;entryDy=0;exitX=0.5;exitY=1;exitDx=0;exitDy=0;entryPerimeter=0;" edge="1" parent="1" source="iryeiS7iNPTf82SAIa8L-50" target="iryeiS7iNPTf82SAIa8L-54">
          <mxGeometry relative="1" as="geometry">
            <mxPoint x="590" y="409" as="sourcePoint" />
            <mxPoint x="590" y="439" as="targetPoint" />
          </mxGeometry>
        </mxCell>
        <mxCell id="iryeiS7iNPTf82SAIa8L-11" value="MCP Server" style="rounded=1;whiteSpace=wrap;html=1;fillColor=#ffe6cc;strokeColor=#d79b00;" vertex="1" parent="1">
          <mxGeometry x="640" y="270" width="40" height="90" as="geometry" />
        </mxCell>
        <mxCell id="iryeiS7iNPTf82SAIa8L-40" style="rounded=0;orthogonalLoop=1;jettySize=auto;html=1;entryX=0.5;entryY=0;entryDx=0;entryDy=0;exitX=0.5;exitY=1;exitDx=0;exitDy=0;" edge="1" parent="1" source="iryeiS7iNPTf82SAIa8L-50" target="iryeiS7iNPTf82SAIa8L-52">
          <mxGeometry relative="1" as="geometry">
            <mxPoint x="660" y="390" as="sourcePoint" />
            <mxPoint x="730" y="439" as="targetPoint" />
          </mxGeometry>
        </mxCell>
        <mxCell id="iryeiS7iNPTf82SAIa8L-13" value="Tool" style="rounded=1;whiteSpace=wrap;html=1;fillColor=#fff2cc;strokeColor=#d6b656;" vertex="1" parent="1">
          <mxGeometry x="100" y="400" width="40" height="40" as="geometry" />
        </mxCell>
        <mxCell id="iryeiS7iNPTf82SAIa8L-14" value="Tool" style="rounded=1;whiteSpace=wrap;html=1;fillColor=#fff2cc;strokeColor=#d6b656;" vertex="1" parent="1">
          <mxGeometry x="170" y="400" width="40" height="40" as="geometry" />
        </mxCell>
        <mxCell id="iryeiS7iNPTf82SAIa8L-15" value="Tool" style="rounded=1;whiteSpace=wrap;html=1;fillColor=#fff2cc;strokeColor=#d6b656;" vertex="1" parent="1">
          <mxGeometry x="240" y="400" width="40" height="40" as="geometry" />
        </mxCell>
        <mxCell id="iryeiS7iNPTf82SAIa8L-16" value="Tool" style="rounded=1;whiteSpace=wrap;html=1;fillColor=#fff2cc;strokeColor=#d6b656;" vertex="1" parent="1">
          <mxGeometry x="330" y="399" width="40" height="40" as="geometry" />
        </mxCell>
        <mxCell id="iryeiS7iNPTf82SAIa8L-17" value="Tool" style="rounded=1;whiteSpace=wrap;html=1;fillColor=#fff2cc;strokeColor=#d6b656;" vertex="1" parent="1">
          <mxGeometry x="400" y="399" width="40" height="40" as="geometry" />
        </mxCell>
        <mxCell id="iryeiS7iNPTf82SAIa8L-18" value="Tool" style="rounded=1;whiteSpace=wrap;html=1;fillColor=#fff2cc;strokeColor=#d6b656;" vertex="1" parent="1">
          <mxGeometry x="470" y="399" width="40" height="40" as="geometry" />
        </mxCell>
        <mxCell id="iryeiS7iNPTf82SAIa8L-20" value="Tool" style="rounded=1;whiteSpace=wrap;html=1;fillColor=#fff2cc;strokeColor=#d6b656;" vertex="1" parent="1">
          <mxGeometry x="640" y="399" width="40" height="40" as="geometry" />
        </mxCell>
        <mxCell id="iryeiS7iNPTf82SAIa8L-44" style="rounded=0;orthogonalLoop=1;jettySize=auto;html=1;entryX=0.5;entryY=0;entryDx=0;entryDy=0;exitX=0.5;exitY=1;exitDx=0;exitDy=0;" edge="1" parent="1" target="iryeiS7iNPTf82SAIa8L-41">
          <mxGeometry relative="1" as="geometry">
            <mxPoint x="420" y="200" as="sourcePoint" />
            <mxPoint x="350" y="240" as="targetPoint" />
          </mxGeometry>
        </mxCell>
        <mxCell id="iryeiS7iNPTf82SAIa8L-45" style="edgeStyle=orthogonalEdgeStyle;rounded=0;orthogonalLoop=1;jettySize=auto;html=1;" edge="1" parent="1">
          <mxGeometry relative="1" as="geometry">
            <mxPoint x="420" y="200" as="sourcePoint" />
            <mxPoint x="420" y="230" as="targetPoint" />
          </mxGeometry>
        </mxCell>
        <mxCell id="iryeiS7iNPTf82SAIa8L-46" style="rounded=0;orthogonalLoop=1;jettySize=auto;html=1;entryX=0.5;entryY=0;entryDx=0;entryDy=0;exitX=0.5;exitY=1;exitDx=0;exitDy=0;" edge="1" parent="1" target="iryeiS7iNPTf82SAIa8L-43">
          <mxGeometry relative="1" as="geometry">
            <mxPoint x="420" y="200" as="sourcePoint" />
            <mxPoint x="490" y="240" as="targetPoint" />
          </mxGeometry>
        </mxCell>
        <mxCell id="iryeiS7iNPTf82SAIa8L-48" style="edgeStyle=orthogonalEdgeStyle;rounded=0;orthogonalLoop=1;jettySize=auto;html=1;" edge="1" parent="1">
          <mxGeometry relative="1" as="geometry">
            <mxPoint x="660" y="200" as="sourcePoint" />
            <mxPoint x="660" y="230" as="targetPoint" />
          </mxGeometry>
        </mxCell>
        <mxCell id="iryeiS7iNPTf82SAIa8L-53" value="Tool" style="rounded=1;whiteSpace=wrap;html=1;fillColor=#fff2cc;strokeColor=#d6b656;" vertex="1" parent="1">
          <mxGeometry x="710" y="399" width="40" height="40" as="geometry" />
        </mxCell>
        <mxCell id="iryeiS7iNPTf82SAIa8L-55" value="Tool" style="rounded=1;whiteSpace=wrap;html=1;fillColor=#fff2cc;strokeColor=#d6b656;" vertex="1" parent="1">
          <mxGeometry x="570" y="399" width="40" height="40" as="geometry" />
        </mxCell>
      </root>
    </mxGraphModel>
  </diagram>
</mxfile>
